<svg width="90" height="20" viewBox="0 0 90 20" fill="none" xmlns="http://www.w3.org/2000/svg">
<path d="M4.67762 0.466797H0V15.1927H4.67762C9.83735 15.1927 12.2077 12.3742 12.2077 7.85135C12.2077 3.30645 9.83735 0.466797 4.67762 0.466797ZM4.61449 13.4256H2.07672V2.2128H4.61449C8.68373 2.2128 10.0894 4.35837 10.0894 7.85037C10.0894 11.3213 8.68373 13.4256 4.61449 13.4256Z" fill="white"/>
<path d="M18.4069 4.50562C15.3019 4.50562 13.1836 6.7145 13.1836 10.017C13.1836 13.2774 15.3234 15.4445 18.3854 15.4445C20.84 15.4445 22.5388 13.9719 23.1051 12.0153H21.0284C20.609 13.0462 19.6864 13.7191 18.3854 13.7191C16.7702 13.7191 15.3445 12.5838 15.2182 10.4588H23.3778C23.3988 10.0804 23.3988 9.76473 23.3988 9.46972C23.3988 6.77733 21.4689 4.50562 18.4069 4.50562ZM15.2608 8.98622C15.4913 7.17739 16.8339 6.23051 18.3859 6.23051C20.0221 6.23051 21.2599 7.28243 21.3436 8.98622H15.2608Z" fill="white"/>
<path d="M29.7111 4.50562C26.6066 4.50562 24.4883 6.7145 24.4883 10.017C24.4883 13.2774 26.6276 15.4445 29.6901 15.4445C32.1442 15.4445 33.843 13.9719 34.4098 12.0153H32.3331C31.9132 13.0462 30.9906 13.7191 29.6901 13.7191C28.0749 13.7191 26.6487 12.5838 26.5229 10.4588H34.6819C34.703 10.0804 34.703 9.76473 34.703 9.46972C34.703 6.77733 32.7731 4.50562 29.7111 4.50562ZM26.566 8.98622C26.797 7.17739 28.139 6.23051 29.6916 6.23051C31.3278 6.23051 32.5651 7.28243 32.6488 8.98622H26.566Z" fill="white"/>
<path d="M41.7134 4.50562C39.8467 4.50562 38.672 5.41028 38.022 6.41998L37.8121 4.75841H35.9453V19.8196H38.024V13.5513C38.7371 14.7499 40.0376 15.4445 41.6948 15.4445C44.7573 15.4445 46.855 13.1512 46.855 9.99593C46.855 6.84065 44.7548 4.50562 41.7134 4.50562ZM41.3781 13.6357C39.4272 13.6357 38.022 12.1631 38.022 9.97531C38.022 7.80864 39.4272 6.31494 41.3781 6.31494C43.3496 6.31494 44.7338 7.80864 44.7338 9.97531C44.7338 12.1626 43.3496 13.6352 41.3781 13.6352V13.6357Z" fill="white"/>
<path d="M55.5486 10.4166L50.4721 0.466797H48.0391V15.1927H50.1158V4.10606L54.7513 13.0889H56.3454L60.9599 4.10606V15.1927H63.0366V0.466797H60.6031L55.5486 10.4166Z" fill="white"/>
<path d="M66.7291 4.7583H64.6523V15.1926H66.7291V4.7583Z" fill="white"/>
<path d="M65.6795 0.0454102C64.9033 0.0454102 64.3164 0.592724 64.3164 1.35013C64.3164 2.10753 64.9037 2.67546 65.6795 2.67546C66.4763 2.67546 67.0642 2.10753 67.0642 1.35013C67.0642 0.592724 66.4763 0.0454102 65.6795 0.0454102Z" fill="white"/>
<path d="M73.919 4.50562C72.3039 4.50562 71.0039 5.30523 70.3324 6.58835L70.1855 4.75841H68.3398V15.1927H70.419V9.80646C70.419 7.53474 71.6563 6.29334 73.3557 6.29334C75.034 6.29334 75.8939 7.32416 75.8939 9.38578V15.1927H77.9496V9.1757C77.9467 6.04153 76.4152 4.50562 73.919 4.50562Z" fill="white"/>
<path d="M87.9204 0V6.35325C87.2073 5.15407 85.9068 4.45999 84.229 4.45999C81.1666 4.45999 79.0898 6.75282 79.0898 9.90858C79.0898 13.0643 81.1666 15.3989 84.208 15.3989C86.0752 15.3989 87.2494 14.4947 87.9204 13.4845L88.1304 15.1466H89.9971V0H87.9204ZM84.5432 13.5896C82.5928 13.5896 81.1871 12.0959 81.1871 9.9292C81.1871 7.74142 82.5928 6.26882 84.5432 6.26882C86.5147 6.26882 87.8994 7.74142 87.8994 9.9292C87.8994 12.0959 86.5152 13.5896 84.5437 13.5896H84.5432Z" fill="white"/>
</svg>
