<svg width="75" height="24" viewBox="0 0 75 24" fill="none" xmlns="http://www.w3.org/2000/svg">
<g clip-path="url(#clip0_1054_177)">
<path d="M9.3817 8.38523V10.8955H15.4396C15.2788 12.2841 14.7963 13.3523 14.0457 14.0466C13.188 14.9011 11.7941 15.8625 9.3817 15.8625C5.68263 15.8625 2.78771 12.8716 2.78771 9.18637C2.78771 5.50114 5.62902 2.51023 9.3817 2.51023C11.3653 2.51023 12.8663 3.31136 13.9385 4.32614L15.7076 2.56364C14.2066 1.12159 12.1694 0 9.3817 0C4.28878 0 0 4.1125 0 9.18637C0 14.2602 4.28878 18.3727 9.3817 18.3727C12.1158 18.3727 14.2066 17.4648 15.8149 15.8091C17.4768 14.1534 18.0129 11.8034 18.0129 9.93409C18.0129 9.34659 17.9593 8.8125 17.9056 8.38523H9.3817Z" fill="white"/>
<path d="M25.5199 6.30225C22.2497 6.30225 19.5156 8.81247 19.5156 12.2307C19.5156 15.6488 22.1961 18.1591 25.5199 18.1591C28.8437 18.1591 31.5242 15.7022 31.5242 12.2841C31.5242 8.81247 28.8437 6.30225 25.5199 6.30225ZM25.5199 15.8625C23.6972 15.8625 22.1425 14.367 22.1425 12.2841C22.1425 10.1477 23.6972 8.70565 25.5199 8.70565C27.3426 8.70565 28.8973 10.1477 28.8973 12.2841C28.8973 14.367 27.3426 15.8625 25.5199 15.8625Z" fill="white"/>
<path d="M54.8417 7.63747H54.7345C54.1448 6.94316 53.019 6.30225 51.5715 6.30225C48.5694 6.30225 45.9961 8.86588 45.9961 12.2307C45.9961 15.542 48.5694 18.1591 51.5715 18.1591C53.019 18.1591 54.1448 17.5182 54.7345 16.8238H54.8417V17.6784C54.8417 19.9216 53.6087 21.15 51.6787 21.15C50.0704 21.15 49.1055 20.0284 48.6766 19.0136L46.425 19.975C47.0683 21.5238 48.8374 23.5 51.7323 23.5C54.7881 23.5 57.415 21.6841 57.415 17.3045V6.6227H54.9489V7.63747H54.8417ZM51.8396 15.8625C50.0168 15.8625 48.6766 14.3136 48.6766 12.2841C48.6766 10.2011 50.0704 8.70565 51.8396 8.70565C53.6087 8.70565 55.0025 10.2545 55.0025 12.3375C55.0561 14.367 53.6623 15.8625 51.8396 15.8625Z" fill="white"/>
<path d="M38.8676 6.30225C35.5974 6.30225 32.8633 8.81247 32.8633 12.2307C32.8633 15.6488 35.5438 18.1591 38.8676 18.1591C42.1914 18.1591 44.8719 15.7022 44.8719 12.2841C44.8719 8.81247 42.1914 6.30225 38.8676 6.30225ZM38.8676 15.8625C37.0448 15.8625 35.4902 14.367 35.4902 12.2841C35.4902 10.1477 37.0448 8.70565 38.8676 8.70565C40.6903 8.70565 42.245 10.1477 42.245 12.2841C42.245 14.367 40.6903 15.8625 38.8676 15.8625Z" fill="white"/>
<path d="M59.3984 0.26709H61.9717V18.2125H59.3984V0.26709Z" fill="white"/>
<path d="M69.9088 15.8625C68.5685 15.8625 67.6572 15.275 67.0139 14.0466L75.0017 10.7886L74.7337 10.0943C74.2512 8.75906 72.6965 6.30225 69.6407 6.30225C66.585 6.30225 64.0117 8.70566 64.0117 12.2307C64.0117 15.542 66.5314 18.1591 69.9088 18.1591C72.6429 18.1591 74.1976 16.5034 74.8945 15.542L72.8573 14.2068C72.1604 15.2216 71.249 15.8625 69.9088 15.8625ZM69.748 8.54543C70.8202 8.54543 71.7315 9.07952 71.9996 9.82725L66.6386 12.0704C66.585 9.61361 68.4077 8.54543 69.748 8.54543Z" fill="white"/>
</g>
<defs>
<clipPath id="clip0_1054_177">
<rect width="75" height="23.5" fill="white"/>
</clipPath>
</defs>
</svg>
